<svg width="549" height="138" viewBox="0 0 549 138" fill="none" xmlns="http://www.w3.org/2000/svg">
<path d="M117.44 82.3149C114.403 82.3149 113.327 78.2972 115.959 76.7733L144.861 60.0845C145.287 59.8394 145.436 59.2959 145.191 58.8696L141.333 52.1877C141.088 51.7614 140.545 51.6122 140.118 51.8573L111.217 68.5461C108.584 70.0594 105.643 67.1181 107.167 64.4965L123.856 35.5948C124.101 35.1685 123.952 34.625 123.525 34.3799L116.843 30.5221C116.417 30.2769 115.874 30.4261 115.629 30.8524L98.9397 59.7541C97.4265 62.3864 93.3981 61.31 93.3981 58.2728V24.8952C93.3981 24.405 93.0038 24 92.5029 24H84.7873C84.2971 24 83.8921 24.3943 83.8921 24.8952V58.2728C83.8921 61.31 79.8744 62.3864 78.3505 59.7541L61.6617 30.8524C61.4166 30.4261 60.8731 30.2769 60.4468 30.5221L53.7649 34.3799C53.3386 34.625 53.1894 35.1685 53.4345 35.5948L70.1233 64.4965C71.6366 67.1287 68.6953 70.07 66.0737 68.5461L37.172 51.8573C36.7457 51.6122 36.2022 51.7614 35.9571 52.1877L32.0993 58.8696C31.8542 59.2959 32.0034 59.8394 32.4297 60.0845L61.3313 76.7733C63.9636 78.2866 62.8872 82.3149 59.85 82.3149H24.8952C24.405 82.3149 24 82.7092 24 83.2101V90.9257C24 91.4159 24.3943 91.8209 24.8952 91.8209H69.793C72.4146 91.8209 74.546 89.7002 74.546 87.0679C74.546 79.2777 80.8655 72.9687 88.6451 72.9687C96.4354 72.9687 102.744 79.2883 102.744 87.0679C102.744 89.6895 104.865 91.8209 107.497 91.8209H152.395C152.885 91.8209 153.29 91.4266 153.29 90.9257V83.2101C153.29 82.7199 152.896 82.3149 152.395 82.3149H117.44Z" fill="#FFFEFB"/>
<path d="M198.875 24.0391H178.414C177.945 24.0391 177.562 24.4227 177.562 24.8916V90.9648C177.562 91.4337 177.945 91.8173 178.414 91.8173H198.875C210.779 91.8173 220.019 89.0572 226.338 83.6115C232.69 78.1338 235.919 69.459 235.919 57.8323C235.919 35.41 223.45 24.0391 198.875 24.0391ZM188.922 35.6765C188.922 35.2076 189.305 34.8239 189.774 34.8239H198.215C204.428 34.8239 209.511 35.6019 213.305 37.1471C217.014 38.6604 219.816 41.0795 221.617 44.3619C223.45 47.6869 224.378 52.2161 224.378 57.8323C224.378 66.1873 222.353 72.2192 218.356 75.7573C214.339 79.3167 207.689 81.1284 198.598 81.1284H189.785C189.316 81.1284 188.932 80.7447 188.932 80.2758V35.6765H188.922Z" fill="#FFFEFB"/>
<path d="M292.337 63.7783C292.006 58.8441 290.685 54.4215 288.404 50.6382C286.113 46.8444 282.99 43.8604 279.133 41.761C275.275 39.6722 270.884 38.6172 266.067 38.6172C260.675 38.6172 255.847 39.7681 251.712 42.0594C247.556 44.3506 244.295 47.633 242.004 51.8212C239.723 55.988 238.572 60.8689 238.572 66.3146C238.572 71.7603 239.659 76.1723 241.812 80.19C243.975 84.2183 247.066 87.3941 250.998 89.6214C254.92 91.838 259.481 92.9677 264.554 92.9677C269.318 92.9677 273.516 91.9233 277.023 89.8559C279.165 88.5983 280.966 87.0104 282.404 85.1135C282.703 84.7192 283.331 84.911 283.353 85.4119L283.566 91.1986C283.587 91.6569 283.96 92.0192 284.418 92.0192H292.923C293.413 92.0192 293.797 91.6143 293.775 91.124L293.019 74.4885C292.891 71.1742 292.667 67.5721 292.347 63.7889L292.337 63.7783ZM257.424 51.1498C259.897 49.7324 262.742 49.0184 265.886 49.0184C269.03 49.0184 271.609 49.7431 273.943 51.1817C276.277 52.6204 278.142 54.6453 279.463 57.2029C280.795 59.7819 281.467 62.7126 281.467 65.931C281.467 71.0889 280.007 75.2345 277.118 78.2291C274.241 81.2237 270.405 82.7477 265.694 82.7477C260.984 82.7477 256.945 81.2024 254.036 78.1439C251.116 75.0746 249.634 70.9717 249.634 65.931C249.634 62.6486 250.327 59.686 251.68 57.1177C253.034 54.5707 254.963 52.5671 257.414 51.1498H257.424Z" fill="#FFFEFB"/>
<path d="M315.591 75.8862L300 40.5584C299.861 40.2494 299.563 40.0469 299.222 40.0469H289.204C288.586 40.0469 288.171 40.6863 288.426 41.2511L310.369 89.3033L304.135 104.649C303.911 105.214 304.316 105.822 304.923 105.822H314.664C315.005 105.822 315.314 105.619 315.452 105.299L342.681 41.2298C342.915 40.665 342.51 40.0469 341.892 40.0469H332.056C331.715 40.0469 331.406 40.2494 331.267 40.5691L316.571 75.8649C316.39 76.3018 315.783 76.3018 315.591 75.8649V75.8862Z" fill="#FFFEFB"/>
<path d="M357.868 24.0391H348.511C348.04 24.0391 347.658 24.4208 347.658 24.8916V91.0607C347.658 91.5315 348.04 91.9132 348.511 91.9132H357.868C358.338 91.9132 358.72 91.5315 358.72 91.0607V24.8916C358.72 24.4208 358.338 24.0391 357.868 24.0391Z" fill="#FFFEFB"/>
<path d="M374.257 24.0508H364.9C364.43 24.0508 364.048 24.4325 364.048 24.9033V34.2601C364.048 34.731 364.43 35.1127 364.9 35.1127H374.257C374.728 35.1127 375.11 34.731 375.11 34.2601V24.9033C375.11 24.4325 374.728 24.0508 374.257 24.0508Z" fill="#FFFEFB"/>
<path d="M374.257 40.0469H364.9C364.43 40.0469 364.048 40.4286 364.048 40.8994V91.0617C364.048 91.5326 364.43 91.9143 364.9 91.9143H374.257C374.728 91.9143 375.11 91.5326 375.11 91.0617V40.8994C375.11 40.4286 374.728 40.0469 374.257 40.0469Z" fill="#FFFEFB"/>
<path d="M404.182 38.1914C391.671 38.1914 379.703 47.6335 379.703 64.6526C379.703 79.5298 390.626 90.7515 405.099 90.7515C410.864 90.7515 416.416 88.6734 420.413 85.1033C420.754 84.805 421.287 85.0501 421.287 85.5083V88.034C421.287 97.0072 414.999 103.273 405.994 103.273C398.886 103.273 393.344 99.81 391.223 93.3838C391.106 93.0321 390.786 92.787 390.424 92.787H380.918C380.449 92.787 380.087 93.2239 380.183 93.6822C382.836 106.215 393.056 113.579 406.004 113.579C421.073 113.579 432.007 102.837 432.007 88.034V40.1416C432.007 39.6727 431.624 39.2891 431.155 39.2891H423.588C423.12 39.2891 422.736 39.6727 422.736 40.1416V45.7578C422.736 46.2694 422.097 46.4825 421.787 46.0776C417.898 41.0155 410.949 38.2021 404.193 38.2021L404.182 38.1914ZM420.946 64.61C420.946 72.2404 415.66 80.3503 405.855 80.3503C397.255 80.3503 390.765 73.5832 390.765 64.61C390.765 55.6369 397.255 48.9656 405.855 48.9656C415.66 48.9656 420.946 57.0223 420.946 64.61Z" fill="#FFFEFB"/>
<path d="M477.928 41.5378C474.571 39.5982 470.585 38.6178 466.077 38.6178C459.065 38.6178 453.609 40.6746 449.825 44.7562C449.495 45.1079 448.909 44.8734 448.909 44.3832L449.069 24.9023C449.069 24.4334 448.685 24.0391 448.216 24.0391H438.859C438.39 24.0391 438.007 24.4227 438.007 24.8916V91.05C438.007 91.5189 438.39 91.9026 438.859 91.9026H448.216C448.685 91.9026 449.069 91.5189 449.069 91.05V65.0897C449.186 59.7932 450.529 55.7009 453.054 52.9407C455.548 50.2126 459.289 48.8165 464.18 48.8165C468.795 48.8165 472.194 50.0527 474.283 52.4825C476.393 54.9549 477.47 58.7701 477.47 63.8215V91.0394C477.47 91.5083 477.853 91.8919 478.322 91.8919H487.69C488.158 91.8919 488.542 91.5083 488.542 91.0394V62.191C488.542 57.5019 487.615 53.335 485.782 49.8076C483.938 46.2482 481.295 43.4667 477.938 41.5165L477.928 41.5378Z" fill="#FFFEFB"/>
<path d="M525 81.8521C525.053 81.4045 524.637 81.0421 524.211 81.1594C522.101 81.7775 519.65 81.8947 517.209 81.884C513 81.8734 509.845 80.8716 507.821 78.8788C505.796 76.8859 504.773 73.3265 504.773 68.3071V51.0108C504.773 50.5419 505.156 50.1583 505.625 50.1583H523.838C524.307 50.1583 524.691 49.7746 524.691 49.3057V40.8974C524.691 40.4285 524.307 40.0448 523.838 40.0448H505.625C505.156 40.0448 504.773 39.6612 504.773 39.1922V27.9385C504.773 27.4696 504.389 27.0859 503.92 27.0859H494.553C494.084 27.0859 493.7 27.4696 493.7 27.9385V67.1668C493.7 83.7703 501 92.1893 515.387 92.1893C517.817 92.1893 519.575 92.136 520.609 92.0401C521.451 91.9655 522.517 91.8057 523.359 91.6138C523.71 91.5286 523.966 91.2302 524.009 90.8785L524.989 81.8521H525Z" fill="#FFFEFB"/>
</svg>
