<svg xmlns="http://www.w3.org/2000/svg" viewBox="0 0 660 560" fill="none"><polygon points="330.0,301.2 629.3,474.0 392.4,610.8 93.1,438.0" stroke="#4C2806" stroke-opacity="0.25" stroke-width="1.1" fill="none" stroke-linejoin="round"/><line x1="330.0" y1="330.0" x2="330.0" y2="214.8" stroke="#4C2806" stroke-opacity="0.55" stroke-width="1.1" fill="none" stroke-linejoin="round"/><line x1="579.4" y1="474.0" x2="579.4" y2="358.8" stroke="#4C2806" stroke-opacity="0.55" stroke-width="1.1" fill="none" stroke-linejoin="round"/><line x1="392.4" y1="582.0" x2="392.4" y2="466.8" stroke="#4C2806" stroke-opacity="0.55" stroke-width="1.1" fill="none" stroke-linejoin="round"/><line x1="142.9" y1="438.0" x2="142.9" y2="322.8" stroke="#4C2806" stroke-opacity="0.55" stroke-width="1.1" fill="none" stroke-linejoin="round"/><polygon points="330.0,330.0 579.4,474.0 392.4,582.0 142.9,438.0" stroke="#4C2806" stroke-opacity="0.55" stroke-width="1.1" fill="none" stroke-linejoin="round"/><polygon points="330.0,214.8 579.4,358.8 392.4,466.8 142.9,322.8" stroke="#4C2806" stroke-opacity="0.55" stroke-width="1.1" fill="none" stroke-linejoin="round"/><line x1="236.5" y1="196.8" x2="485.9" y2="340.8" stroke="#4C2806" stroke-opacity="0.55" stroke-width="1.1" fill="none" stroke-linejoin="round"/><polygon points="330.0,214.8 236.5,196.8 142.9,322.8" stroke="#4C2806" stroke-opacity="0.55" stroke-width="1.1" fill="none" stroke-linejoin="round"/><polygon points="579.4,358.8 485.9,340.8 392.4,466.8" stroke="#4C2806" stroke-opacity="0.55" stroke-width="1.1" fill="none" stroke-linejoin="round"/><line x1="286.4" y1="225.6" x2="192.8" y2="351.6" stroke="#4C2806" stroke-opacity="0.3" stroke-width="1.1" fill="none" stroke-linejoin="round"/><line x1="336.2" y1="254.4" x2="242.7" y2="380.4" stroke="#4C2806" stroke-opacity="0.3" stroke-width="1.1" fill="none" stroke-linejoin="round"/><line x1="386.1" y1="283.2" x2="292.6" y2="409.2" stroke="#4C2806" stroke-opacity="0.3" stroke-width="1.1" fill="none" stroke-linejoin="round"/><line x1="436.0" y1="312.0" x2="342.5" y2="438.0" stroke="#4C2806" stroke-opacity="0.3" stroke-width="1.1" fill="none" stroke-linejoin="round"/><polygon points="245.8,497.4 280.1,517.2 280.1,459.6 245.8,439.8" fill="#F66F00" stroke="none"/><polygon points="308.2,533.4 330.0,546.0 330.0,510.0 308.2,497.4" stroke="#4C2806" stroke-opacity="0.55" stroke-width="1.1" fill="none" stroke-linejoin="round"/><defs><linearGradient id="pg" x1="0" y1="1" x2="1" y2="0"><stop offset="0" stop-color="#FCCC3C"/><stop offset="1" stop-color="#F66F00"/></linearGradient></defs><polygon points="247.4,187.5 307.2,222.1 279.3,259.7 219.5,225.1" fill="url(#pg)" stroke="#FFF7E9" stroke-width="1.4"/><polygon points="210.7,236.9 270.6,271.4 242.7,309.0 182.8,274.4" fill="url(#pg)" stroke="#FFF7E9" stroke-width="1.4"/><polygon points="316.0,227.1 375.8,261.7 347.9,299.3 288.1,264.7" fill="url(#pg)" stroke="#FFF7E9" stroke-width="1.4"/><polygon points="279.3,276.4 339.2,311.0 311.3,348.6 251.4,314.0" fill="url(#pg)" stroke="#FFF7E9" stroke-width="1.4"/><polygon points="384.6,266.7 444.4,301.3 416.5,338.8 356.7,304.3" fill="url(#pg)" stroke="#FFF7E9" stroke-width="1.4"/><polygon points="347.9,316.0 407.8,350.6 379.9,388.2 320.0,353.6" fill="url(#pg)" stroke="#FFF7E9" stroke-width="1.4"/><line x1="247.4" y1="179.1" x2="247.4" y2="224.1" stroke="#4C2806" stroke-opacity="0.35" stroke-width="1.1" fill="none" stroke-linejoin="round" stroke-dasharray="2 4"/><line x1="453.1" y1="297.9" x2="453.1" y2="342.9" stroke="#4C2806" stroke-opacity="0.35" stroke-width="1.1" fill="none" stroke-linejoin="round" stroke-dasharray="2 4"/><line x1="379.9" y1="396.6" x2="379.9" y2="441.6" stroke="#4C2806" stroke-opacity="0.35" stroke-width="1.1" fill="none" stroke-linejoin="round" stroke-dasharray="2 4"/><line x1="174.1" y1="277.8" x2="174.1" y2="322.8" stroke="#4C2806" stroke-opacity="0.35" stroke-width="1.1" fill="none" stroke-linejoin="round" stroke-dasharray="2 4"/></svg>