<svg width="85" height="45" viewBox="0 0 85 45" fill="none" xmlns="http://www.w3.org/2000/svg">
<path d="M61.4309 38.6926C59.4341 38.6926 58.7265 36.0269 60.4571 35.0157L79.458 23.9425C79.7383 23.7799 79.8364 23.4192 79.6752 23.1364L77.139 18.7029C76.9778 18.42 76.6205 18.321 76.3403 18.4837L57.3393 29.5569C55.6087 30.561 53.675 28.6094 54.6769 26.8699L65.6487 7.69327C65.8098 7.41043 65.7118 7.04981 65.4315 6.88718L61.0386 4.32747C60.7583 4.16483 60.401 4.26383 60.2399 4.54667L49.2681 23.7233C48.2732 25.4698 45.6248 24.7557 45.6248 22.7404V0.593966C45.6248 0.268699 45.3656 0 45.0363 0H39.9637C39.6414 0 39.3752 0.261628 39.3752 0.593966V22.7404C39.3752 24.7557 36.7338 25.4698 35.7319 23.7233L24.7601 4.54667C24.599 4.26383 24.2417 4.16483 23.9614 4.32747L19.5685 6.88718C19.2882 7.04981 19.1902 7.41043 19.3513 7.69327L30.3231 26.8699C31.318 28.6164 29.3843 30.568 27.6607 29.5569L8.65974 18.4837C8.37949 18.321 8.02217 18.42 7.86103 18.7029L5.32476 23.1364C5.16362 23.4192 5.2617 23.7799 5.54195 23.9425L24.5429 35.0157C26.2735 36.0198 25.5659 38.6926 23.5691 38.6926H0.588526C0.266238 38.6926 0 38.9543 0 39.2866V44.406C0 44.7313 0.259232 45 0.588526 45H30.1059C31.8295 45 33.2307 43.5929 33.2307 41.8463C33.2307 36.6774 37.3854 32.4914 42.5 32.4914C47.6216 32.4914 51.7693 36.6845 51.7693 41.8463C51.7693 43.5858 53.1635 45 54.8941 45H84.4115C84.7338 45 85 44.7384 85 44.406V39.2866C85 38.9613 84.7408 38.6926 84.4115 38.6926H61.4309Z" fill="#321F61"/>
</svg>
