<svg xmlns="http://www.w3.org/2000/svg" fill="none" viewBox="0 0 360 67"><path fill="#F7EED9" d="M68.4 43.85c-2.22 0-3.01-2.97-1.08-4.1L88.47 27.4a.66.66 0 0 0 .25-.9l-2.83-4.94a.65.65 0 0 0-.89-.24L63.84 33.66c-1.92 1.12-4.08-1.05-2.96-3L73.1 9.3a.66.66 0 0 0-.24-.9l-4.9-2.85a.65.65 0 0 0-.89.24L54.86 27.16c-1.11 1.95-4.06 1.15-4.06-1.1V1.38a.66.66 0 0 0-.65-.67H44.5c-.36 0-.66.3-.66.67v24.68c0 2.25-2.94 3.05-4.05 1.1L27.57 5.78a.65.65 0 0 0-.89-.24l-4.9 2.85a.66.66 0 0 0-.23.9l12.21 21.38c1.11 1.94-1.04 4.12-2.96 3L9.64 21.31a.65.65 0 0 0-.89.24l-2.82 4.95a.66.66 0 0 0 .24.9l21.16 12.34c1.92 1.12 1.14 4.1-1.09 4.1H.66c-.36 0-.66.29-.66.66v5.7c0 .37.29.67.66.67h32.86A3.5 3.5 0 0 0 37 47.36c0-5.76 4.63-10.43 10.32-10.43 5.7 0 10.32 4.68 10.32 10.43a3.5 3.5 0 0 0 3.48 3.52H94c.36 0 .65-.3.65-.66V44.5a.66.66 0 0 0-.65-.66H68.4ZM120.27.74h-14.98a.63.63 0 0 0-.63.63v48.88c0 .34.28.63.63.63h14.98c8.71 0 15.47-2.04 20.1-6.07 4.65-4.05 7.01-10.47 7.01-19.07 0-16.58-9.12-25-27.11-25Zm-7.29 8.61c0-.34.28-.63.62-.63h6.18c4.55 0 8.27.58 11.05 1.72a11.82 11.82 0 0 1 6.08 5.34c1.35 2.46 2.03 5.8 2.03 9.96 0 6.18-1.49 10.64-4.41 13.26-2.94 2.63-7.81 3.97-14.47 3.97h-6.45a.63.63 0 0 1-.62-.63V9.35h-.01ZM188.69 30.14a21.54 21.54 0 0 0-2.88-9.72 17.82 17.82 0 0 0-6.79-6.57 19.67 19.67 0 0 0-9.56-2.32c-3.95 0-7.48.85-10.5 2.54a17.84 17.84 0 0 0-7.12 7.22 22.27 22.27 0 0 0-2.5 10.72c0 4.03.79 7.3 2.36 10.27a17.2 17.2 0 0 0 6.73 6.97 19.75 19.75 0 0 0 9.92 2.48c3.49 0 6.56-.77 9.13-2.3 1.57-.93 2.89-2.1 3.94-3.51.22-.3.68-.15.7.22l.15 4.28c.01.34.29.6.62.6h6.23c.36 0 .64-.3.62-.65l-.55-12.3c-.1-2.46-.26-5.13-.5-7.92v-.01Zm-25.56-9.34a12.18 12.18 0 0 1 6.2-1.58 10.74 10.74 0 0 1 9.93 6.05c.98 1.91 1.47 4.08 1.47 6.46 0 3.82-1.07 6.88-3.18 9.1-2.1 2.21-4.92 3.34-8.36 3.34-3.45 0-6.4-1.14-8.54-3.4-2.14-2.28-3.22-5.31-3.22-9.04 0-2.43.5-4.62 1.5-6.52.99-1.88 2.4-3.36 4.2-4.41ZM205.7 39.1l-11.4-26.14a.62.62 0 0 0-.58-.38h-7.33a.63.63 0 0 0-.57.9l16.06 35.54-4.56 11.35c-.16.42.13.87.58.87h7.13c.25 0 .47-.15.58-.39l19.93-47.4a.63.63 0 0 0-.58-.87h-7.2a.63.63 0 0 0-.58.39l-10.75 26.1a.39.39 0 0 1-.72 0v.02ZM236.66.74h-6.85a.63.63 0 0 0-.63.63v48.95c0 .35.28.63.63.63h6.85c.34 0 .62-.28.62-.63V1.37a.63.63 0 0 0-.62-.63ZM248.65.75h-6.85a.63.63 0 0 0-.62.63v6.93c0 .34.28.63.62.63h6.85c.35 0 .63-.29.63-.63V1.38a.63.63 0 0 0-.63-.63ZM248.65 12.58h-6.85a.63.63 0 0 0-.62.63v37.1c0 .36.28.64.62.64h6.85c.35 0 .63-.28.63-.63v-37.1a.63.63 0 0 0-.63-.64ZM270.56 11.21c-9.16 0-17.92 6.99-17.92 19.58 0 11 8 19.3 18.59 19.3 4.22 0 8.28-1.54 11.2-4.18.26-.22.65-.04.65.3v1.87c0 6.64-4.6 11.27-11.2 11.27-5.2 0-9.26-2.56-10.81-7.31a.63.63 0 0 0-.58-.44h-6.96c-.35 0-.61.32-.54.66 1.94 9.27 9.42 14.72 18.9 14.72 11.03 0 19.04-7.95 19.04-18.9V12.66a.63.63 0 0 0-.63-.64h-5.54a.63.63 0 0 0-.62.64v4.15c0 .38-.47.54-.7.24-2.84-3.75-7.93-5.83-12.88-5.83Zm12.27 19.54c0 5.65-3.87 11.65-11.05 11.65-6.3 0-11.05-5-11.05-11.65 0-6.63 4.75-11.57 11.05-11.57 7.18 0 11.05 5.96 11.05 11.57ZM324.54 13.69a16.97 16.97 0 0 0-8.67-2.16c-5.13 0-9.13 1.52-11.9 4.54-.24.26-.67.08-.67-.28l.12-14.4a.64.64 0 0 0-.63-.65h-6.85a.63.63 0 0 0-.62.63v48.94c0 .35.28.63.62.63h6.85c.35 0 .63-.28.63-.63v-19.2c.08-3.92 1.07-6.95 2.92-8.99 1.82-2.02 4.56-3.05 8.14-3.05 3.38 0 5.87.92 7.4 2.71 1.54 1.83 2.33 4.65 2.33 8.39V50.3c0 .35.28.63.62.63h6.86c.34 0 .62-.28.62-.63V28.96c0-3.46-.68-6.55-2.02-9.16a14.8 14.8 0 0 0-5.74-6.13v.02ZM359 43.5c.04-.32-.26-.6-.57-.5-1.55.45-3.34.54-5.13.53-3.08 0-5.4-.75-6.87-2.22-1.49-1.48-2.24-4.1-2.24-7.82v-12.8c0-.34.29-.63.63-.63h13.33c.35 0 .63-.28.63-.63v-6.22a.63.63 0 0 0-.63-.63h-13.33a.63.63 0 0 1-.63-.63V3.63a.63.63 0 0 0-.62-.63h-6.86a.63.63 0 0 0-.62.63v29.02c0 12.28 5.34 18.5 15.88 18.5 1.77 0 3.06-.04 3.82-.1.61-.06 1.4-.18 2.01-.32a.64.64 0 0 0 .48-.55l.71-6.67h.01Z"/></svg>